<?xml version="1.0" standalone="no"?><!DOCTYPE svg PUBLIC "-//W3C//DTD SVG 1.1//EN" "http://www.w3.org/Graphics/SVG/1.1/DTD/svg11.dtd"><svg t="1583419282526" class="icon" viewBox="0 0 1024 1024" version="1.1" xmlns="http://www.w3.org/2000/svg" p-id="5392" xmlns:xlink="http://www.w3.org/1999/xlink" width="200" height="200"><defs><style type="text/css"></style></defs><path d="M964.693333 481.706667l-422.4-422.4a128 128 0 0 0-181.333333 0L315.733333 104.533333a42.666667 42.666667 0 1 0 60.586667 60.586667l45.226667-45.226667a42.666667 42.666667 0 0 1 60.16 0l422.4 422.4a42.666667 42.666667 0 0 1 0 60.16l-301.653334 301.653334a42.666667 42.666667 0 0 1-60.16 0l-422.4-422.4a42.666667 42.666667 0 0 1 0-60.16l45.226667-45.226667A42.666667 42.666667 0 1 0 104.533333 315.733333L59.306667 360.96a128 128 0 0 0 0 181.333333l422.4 422.4a128 128 0 0 0 181.333333 0l301.653333-301.653333a128 128 0 0 0 0-181.333333z" p-id="5393" fill="#8a8a8a"></path><path d="M304.213333 370.773333a81.92 81.92 0 0 0-4.266666 25.173334 85.333333 85.333333 0 1 0 85.333333-85.333334 85.333333 85.333333 0 0 0-18.346667 0L131.84 85.333333a42.666667 42.666667 0 0 0-60.16 0 42.666667 42.666667 0 0 0 0 60.586667z" p-id="5394" fill="#8a8a8a"></path></svg>